<svg width="288" height="74" viewBox="0 0 288 74" fill="none" xmlns="http://www.w3.org/2000/svg">
<g clip-path="url(#clip0_663_1405)">
<rect width="288" height="74" fill="white"/>
<g clip-path="url(#clip1_663_1405)">
<path d="M111.237 33.0562H107.508V13.0777H107.793C109.048 13.0777 110.303 13.0777 111.558 13.0725C111.64 13.0671 111.723 13.0844 111.796 13.1226C111.87 13.1608 111.931 13.2185 111.974 13.2892C113.938 15.9963 115.904 18.7017 117.872 21.4053C117.928 21.4827 117.988 21.5585 118.069 21.6664C118.172 21.5332 118.266 21.4166 118.353 21.2965C120.296 18.6271 122.239 15.9548 124.18 13.2796C124.222 13.2125 124.282 13.158 124.352 13.1221C124.423 13.0862 124.502 13.0703 124.581 13.076C125.828 13.0838 127.074 13.0803 128.321 13.0803H128.603V33.0501H124.882V18.6399L124.825 18.6181C124.772 18.6825 124.716 18.7452 124.667 18.8122C122.616 21.5466 120.566 24.2804 118.517 27.0136C118.268 27.3452 117.702 27.3417 117.457 27.0066C115.45 24.2612 113.443 21.5161 111.435 18.7713C111.387 18.6961 111.318 18.6358 111.238 18.5972L111.237 33.0562Z" fill="black"/>
<path d="M169.36 33.0293V13.0151H169.68C172.651 13.0212 175.622 13.0221 178.593 13.0351C180.083 13.0412 181.532 13.2597 182.841 14.0318C184.908 15.2504 185.935 17.0975 186.026 19.4738C186.074 20.7308 185.852 21.9398 185.234 23.0566C184.533 24.3327 183.456 25.1526 182.103 25.634C181.755 25.7585 181.393 25.8481 181.005 25.9639C181.058 26.0309 181.102 26.0927 181.151 26.1484C183.057 28.2996 184.962 30.4516 186.867 32.6045C186.954 32.7055 187.001 32.8457 187.098 33.0293H186.74C185.428 33.0293 184.118 33.0293 182.806 33.0293C182.727 33.0336 182.648 33.0186 182.575 32.9855C182.503 32.9525 182.44 32.9024 182.392 32.8396C180.583 30.7545 178.772 28.6707 176.96 26.588C176.892 26.5004 176.804 26.4307 176.703 26.3852C176.602 26.3396 176.492 26.3196 176.381 26.3269C175.385 26.3408 174.39 26.3425 173.394 26.3269C173.133 26.3225 173.086 26.4096 173.087 26.6446C173.094 28.6623 173.091 30.68 173.091 32.6977C173.091 33.0267 173.091 33.0276 172.761 33.0276H169.359L169.36 33.0293ZM173.106 16.5448C173.1 16.671 173.091 16.7667 173.091 16.8625C173.091 18.7908 173.091 20.7194 173.091 22.6484C173.091 22.9652 173.091 22.9669 173.411 22.9669C175.191 22.9669 176.973 22.9669 178.754 22.9669C179.046 22.9655 179.336 22.9416 179.624 22.8956C180.764 22.7163 181.625 22.1304 182.039 21.0363C182.494 19.8499 182.377 18.7026 181.572 17.6912C180.904 16.8503 179.965 16.5543 178.925 16.55C177.079 16.5439 175.232 16.55 173.387 16.55L173.106 16.5448Z" fill="black"/>
<path d="M203.473 13.0498V16.6865H203.151C199.645 16.6865 196.139 16.6865 192.632 16.6865C192.212 16.6865 192.262 16.6474 192.261 17.0687C192.261 18.3656 192.261 19.6623 192.261 20.9587V21.2773H203.069V24.8H192.277C192.27 24.9062 192.26 24.9837 192.26 25.0611C192.26 26.3981 192.266 27.7351 192.255 29.0722C192.255 29.308 192.336 29.3516 192.547 29.3507C196.077 29.3455 199.608 29.3455 203.139 29.3507H203.468V33.0066H188.555V13.0498H203.473Z" fill="black"/>
<path d="M166.362 13.045V16.6861H155.5C155.152 16.6861 155.152 16.6861 155.152 17.0282C155.152 18.3408 155.152 19.6535 155.152 20.9661V21.2777H165.951V24.8126H165.638C162.245 24.8126 158.853 24.8109 155.461 24.8074C155.222 24.8074 155.143 24.8587 155.146 25.1129C155.159 26.4186 155.151 27.7243 155.152 29.0299C155.152 29.3502 155.152 29.3502 155.472 29.3502H166.35V33.0322H166.089C161.304 33.0322 156.52 33.034 151.737 33.0375C151.502 33.0375 151.441 32.9704 151.441 32.738C151.448 26.2712 151.448 19.8049 151.441 13.3392C151.441 13.0894 151.511 13.0302 151.755 13.0302C156.53 13.0378 161.307 13.0398 166.085 13.0363C166.173 13.0328 166.26 13.0407 166.362 13.045Z" fill="black"/>
<path d="M84.0146 33.03C84.3626 32.2553 84.6861 31.5259 85.0123 30.7973L88.8343 22.2713C90.0955 19.4585 91.3571 16.6464 92.6189 13.8349C92.6846 13.7141 92.7394 13.5877 92.7824 13.4571C92.8694 13.1089 93.0851 13.041 93.4226 13.048C94.5533 13.0706 95.6841 13.061 96.8218 13.048C97.0106 13.048 97.1063 13.1002 97.1854 13.2778C98.9511 17.2296 100.72 21.1794 102.491 25.1272C103.642 27.6956 104.793 30.2646 105.944 32.8341C105.965 32.8829 105.978 32.9369 106.003 33.0135C105.903 33.0187 105.829 33.0248 105.747 33.0248C104.557 33.0248 103.367 33.0248 102.181 33.03C102.107 33.0396 102.031 33.0225 101.969 32.9819C101.906 32.9412 101.86 32.8796 101.838 32.808C101.342 31.6825 100.834 30.5623 100.339 29.4368C100.322 29.3761 100.283 29.3236 100.23 29.2886C100.178 29.2535 100.114 29.2382 100.051 29.2453C96.6998 29.2488 93.3484 29.2488 89.9972 29.2453C89.8285 29.2453 89.7606 29.3149 89.6963 29.4577C89.2005 30.5649 88.6925 31.6669 88.1985 32.775C88.1115 32.963 88.0175 33.0361 87.8036 33.0361C86.638 33.023 85.4725 33.03 84.3069 33.03H84.0146ZM91.3037 25.7452H98.7406C97.5011 22.9032 96.2747 20.0873 95.0222 17.2148C93.7705 20.0856 92.5449 22.8988 91.3037 25.7452V25.7452Z" fill="black"/>
<path d="M132.195 13.0333H133.215C136.146 13.0281 139.078 12.9611 142.006 13.0333C144.703 13.1029 146.839 14.258 148.132 16.7188C148.806 17.9983 149.029 19.378 148.888 20.816C148.701 22.7127 147.932 24.3143 146.453 25.5434C145.337 26.491 143.934 27.0342 142.471 27.085C140.417 27.1607 138.359 27.1276 136.303 27.1433C135.908 27.1433 135.939 27.0893 135.939 27.5071C135.939 29.248 135.934 30.9889 135.944 32.7298C135.944 32.9648 135.879 33.0301 135.646 33.0275C134.577 33.0153 133.508 33.0179 132.44 33.0275C132.253 33.0275 132.19 32.9822 132.19 32.7855C132.196 26.3111 132.196 19.837 132.19 13.3632L132.195 13.0333ZM135.94 20.1536C135.94 21.2469 135.945 22.341 135.936 23.4343C135.936 23.6371 135.978 23.7172 136.202 23.7163C138.006 23.7076 139.811 23.7163 141.616 23.7094C142.205 23.7094 142.78 23.6127 143.308 23.3438C144.522 22.7275 145.117 21.7125 145.208 20.3703C145.348 18.3091 143.858 16.6361 141.804 16.6056C139.927 16.5786 138.049 16.5987 136.171 16.5908C135.991 16.5908 135.935 16.6431 135.936 16.8241C135.944 17.9339 135.939 19.0438 135.94 20.1536Z" fill="black"/>
<path d="M91.0869 58.1849V47.508C91.0869 47.1894 91.0869 47.1876 91.4027 47.1894C93.2293 47.1946 95.062 47.1816 96.8912 47.2155C97.5984 47.2286 98.2829 47.3957 98.877 47.8335C99.3484 48.1817 99.6468 48.6604 99.7016 49.2376C99.7536 49.7099 99.7393 50.1872 99.659 50.6555C99.5363 51.2918 99.0936 51.7323 98.5456 52.0604L98.309 52.204C98.4212 52.251 98.4917 52.2815 98.563 52.3102C99.6459 52.7455 100.197 53.5611 100.283 54.7074C100.428 56.6825 99.1832 57.7618 97.5297 58.0761C97.0987 58.1498 96.6621 58.1847 96.2249 58.1805C94.6227 58.1927 93.0196 58.1849 91.4166 58.1849H91.0869ZM93.4867 53.2921C93.4867 54.2757 93.4867 55.2315 93.4937 56.1863C93.5063 56.2217 93.5278 56.2533 93.5562 56.278C93.5845 56.3027 93.6187 56.3197 93.6555 56.3273C94.634 56.323 95.6152 56.3352 96.592 56.2821C97.1843 56.249 97.6558 55.9644 97.8367 55.3359C98.0176 54.7074 97.8315 53.9876 97.3757 53.6272C97.0217 53.3478 96.5981 53.279 96.1632 53.279C95.3534 53.2729 94.5436 53.279 93.7338 53.279C93.6633 53.2756 93.592 53.2834 93.4867 53.2921V53.2921ZM93.5015 49.0008V51.6008C94.4853 51.6008 95.4569 51.6504 96.4206 51.5834C97.086 51.5373 97.4392 51.0298 97.4462 50.3509C97.4531 49.6719 97.153 49.2088 96.4554 49.1322C95.4873 49.0304 94.5062 49.04 93.5015 49.0008Z" fill="black"/>
<path d="M138.32 53.0097C139.041 53.2238 139.488 53.6886 139.684 54.3658C139.795 54.7869 139.876 55.2154 139.925 55.648C140.021 56.3444 140.089 57.0407 140.182 57.7371C140.201 57.8764 140.28 58.0078 140.34 58.1645C140.272 58.1714 140.213 58.1828 140.154 58.1828C139.498 58.1828 138.842 58.1828 138.186 58.1828C138.032 58.1828 137.935 58.1436 137.913 57.986C137.826 57.3767 137.754 56.7674 137.666 56.1581C137.611 55.7664 137.562 55.3747 137.469 54.9882C137.308 54.331 136.86 53.9811 136.196 53.8993C136.067 53.8851 135.938 53.8787 135.808 53.8801C134.992 53.8801 134.176 53.8801 133.332 53.8801V58.1584H130.928V47.2142C130.975 47.2023 131.023 47.1944 131.071 47.1907C133.104 47.1907 135.137 47.1699 137.169 47.2082C138.917 47.2421 140.199 48.7428 140.06 50.4915C139.973 51.6074 139.497 52.4517 138.446 52.9209C138.402 52.9471 138.36 52.9768 138.32 53.0097ZM133.341 49.0378V52.1514C134.358 52.1514 135.36 52.168 136.361 52.141C136.619 52.1261 136.868 52.0416 137.083 51.8964C137.671 51.4977 137.729 50.8806 137.631 50.2486C137.522 49.5366 137.148 49.1788 136.434 49.0901C136.032 49.0513 135.628 49.0347 135.224 49.0404C134.603 49.0326 133.982 49.0378 133.341 49.0378Z" fill="black"/>
<path d="M125.526 54.0461H123.106V52.2713H127.676V58.1842C127.208 58.1842 126.749 58.1895 126.291 58.1773C126.241 58.1773 126.164 58.0902 126.15 58.0302C126.071 57.6924 126.006 57.3521 125.932 56.9908C125.892 57.0072 125.854 57.0295 125.821 57.057C124.877 58.1886 123.653 58.5812 122.221 58.4175C120.472 58.2173 119.12 57.3921 118.25 55.8462C117.563 54.6276 117.396 53.2958 117.537 51.9196C117.675 50.5756 118.14 49.3692 119.109 48.4013C120.275 47.2366 121.719 46.8345 123.327 46.9459C124.458 47.0251 125.469 47.4298 126.297 48.2254C126.958 48.8575 127.382 49.6981 127.498 50.6061C127.501 50.66 127.501 50.7141 127.498 50.768H125.236C125.192 50.6453 125.149 50.5017 125.09 50.3624C124.635 49.2421 123.589 48.8391 122.53 48.9601C121.249 49.1055 120.492 49.8715 120.132 51.0579C119.757 52.2957 119.77 53.5352 120.278 54.7416C120.771 55.9098 121.88 56.5443 123.149 56.4285C123.915 56.358 124.587 56.123 125.051 55.471C125.346 55.0558 125.476 54.5893 125.526 54.0461Z" fill="black"/>
<path d="M84.0498 39.7325H203.475V40.2495H84.409C83.9706 40.2495 83.9489 40.2173 84.0498 39.7325Z" fill="black"/>
<path d="M184.918 58.1688H176.603V47.2012C176.709 47.196 176.803 47.1873 176.898 47.1873H184.499C184.817 47.1873 184.817 47.1873 184.817 47.5032C184.817 48.0534 184.817 48.6026 184.817 49.1771C184.695 49.1849 184.593 49.1954 184.492 49.1954C182.768 49.1954 181.043 49.1954 179.319 49.1954C178.998 49.1954 178.998 49.1954 178.998 49.5105C178.998 50.1198 179.006 50.7291 178.993 51.3332C178.989 51.5421 179.062 51.5891 179.254 51.5882C180.849 51.5822 182.444 51.5882 184.038 51.5882H184.325V53.4467H179.019V56.145H184.922L184.918 58.1688Z" fill="black"/>
<path d="M145.706 56.1561H151.629V58.1659H143.323V47.2079C143.41 47.2009 143.497 47.1896 143.584 47.1896C146.136 47.1896 148.685 47.1881 151.233 47.1852C151.447 47.1852 151.534 47.2322 151.526 47.4655C151.509 47.9512 151.509 48.4372 151.526 48.9235C151.533 49.1577 151.445 49.2029 151.233 49.2021C149.5 49.1951 147.768 49.1977 146.035 49.1977C145.706 49.1977 145.706 49.1977 145.706 49.5285C145.706 50.1125 145.716 50.6957 145.7 51.2789C145.694 51.5166 145.749 51.5967 146.005 51.594C147.575 51.5819 149.146 51.588 150.716 51.588H151.049V52.1799C151.049 52.5124 151.037 52.8449 151.049 53.1765C151.06 53.3907 150.991 53.4525 150.777 53.4516C149.206 53.4429 147.636 53.4455 146.065 53.4516C145.657 53.4516 145.703 53.4072 145.702 53.8154C145.7 54.5806 145.706 55.3492 145.706 56.1561Z" fill="black"/>
<path d="M187.15 54.5575H189.457C189.468 54.6445 189.479 54.7255 189.488 54.8108C189.553 55.4427 189.843 55.9502 190.409 56.2366C191.375 56.724 192.374 56.7144 193.361 56.2905C193.567 56.2111 193.746 56.072 193.873 55.891C194 55.7099 194.071 55.4951 194.076 55.2738C194.104 54.7803 193.853 54.4434 193.449 54.2041C192.854 53.8559 192.183 53.7227 191.526 53.5565C190.711 53.3502 189.899 53.1447 189.13 52.787C186.976 51.7851 187.176 49.0884 188.547 47.9612C189.322 47.3232 190.217 47.015 191.198 46.9437C192.328 46.861 193.43 47.0107 194.433 47.5826C195.437 48.1545 195.945 49.0336 196.018 50.1774C196.021 50.2339 196.021 50.2906 196.018 50.3471C196.014 50.3768 196.006 50.406 195.996 50.4342H193.711C193.699 50.3471 193.69 50.2601 193.674 50.1782C193.569 49.602 193.272 49.1711 192.704 48.9762C191.98 48.7263 191.246 48.6785 190.53 49.0005C189.976 49.2486 189.736 49.7787 189.884 50.3663C189.921 50.5009 189.992 50.6236 190.09 50.7221C190.189 50.8206 190.312 50.8915 190.446 50.9277C191.159 51.1636 191.881 51.3629 192.598 51.5866C193.277 51.7947 193.98 51.947 194.627 52.229C197.068 53.2979 196.796 56.3889 195.082 57.5684C194.377 58.0541 193.595 58.2969 192.754 58.3953C191.584 58.5311 190.441 58.444 189.355 57.9601C187.955 57.342 187.222 56.254 187.143 54.7246C187.142 54.6688 187.145 54.613 187.15 54.5575V54.5575Z" fill="black"/>
<path d="M164.101 58.1847C163.479 58.1847 162.873 58.1847 162.267 58.1847C162.058 58.1847 161.801 58.2404 161.658 58.1412C161.515 58.042 161.503 57.7843 161.438 57.5937C161.244 57.0357 161.048 56.4787 160.866 55.9181C160.819 55.7745 160.745 55.7362 160.605 55.7362C159.357 55.7402 158.111 55.7402 156.864 55.7362C156.806 55.7268 156.745 55.7408 156.696 55.7753C156.648 55.8098 156.614 55.8619 156.604 55.9207C156.366 56.6171 156.118 57.3134 155.867 58.0019C155.841 58.0725 155.765 58.176 155.711 58.176C154.945 58.1874 154.178 58.1839 153.381 58.1839C153.61 57.5746 153.826 56.9896 154.047 56.4082C154.832 54.3365 155.619 52.2648 156.407 50.1931C156.766 49.2487 157.128 48.3043 157.479 47.3564C157.493 47.3023 157.526 47.2551 157.572 47.224C157.618 47.193 157.674 47.1803 157.729 47.1884C158.434 47.1918 159.138 47.1918 159.842 47.1884C159.897 47.1816 159.953 47.1957 159.999 47.2278C160.044 47.26 160.077 47.308 160.089 47.3624C161.166 50.2576 162.246 53.1521 163.327 56.046C163.571 56.698 163.818 57.3517 164.061 57.9993C164.078 58.0603 164.092 58.1222 164.101 58.1847V58.1847ZM157.297 53.9343H160.167C159.701 52.5756 159.245 51.249 158.789 49.9224L158.723 49.9146C158.253 51.2412 157.782 52.5677 157.297 53.9343Z" fill="black"/>
<path d="M164.461 47.1894H165.025C165.592 47.1894 166.156 47.1947 166.725 47.1894C166.788 47.1791 166.852 47.194 166.904 47.2308C166.956 47.2677 166.991 47.3235 167.002 47.3862C167.544 49.1149 168.089 50.8421 168.638 52.568C168.872 53.3087 169.103 54.0477 169.334 54.7902C169.359 54.8501 169.388 54.9083 169.421 54.9643C169.584 54.4577 169.735 53.9903 169.884 53.5237C170.534 51.4985 171.181 49.4723 171.826 47.4454C171.889 47.2469 171.981 47.1842 172.185 47.1894C172.904 47.2016 173.624 47.1938 174.385 47.1938C174.277 47.5341 174.181 47.8449 174.078 48.1513C173.195 50.8143 172.31 53.477 171.425 56.1394C171.216 56.7687 171 57.3963 170.798 58.0274C170.79 58.0784 170.762 58.124 170.72 58.1545C170.678 58.1849 170.626 58.1977 170.575 58.1902C169.782 58.1858 168.988 58.1806 168.195 58.1902C168.006 58.1902 167.986 58.0727 167.948 57.9552C167.574 56.8096 167.201 55.6638 166.83 54.5178C166.179 52.5105 165.528 50.5027 164.878 48.4942C164.744 48.0721 164.61 47.6508 164.461 47.1894Z" fill="black"/>
<path d="M106.203 55.7209C106.39 55.1412 106.551 54.6346 106.715 54.1271C107.114 52.8789 107.51 51.6307 107.915 50.3842C107.929 50.3474 107.952 50.3144 107.981 50.2881C108.01 50.2618 108.045 50.2428 108.084 50.2327C108.763 50.2231 109.443 50.2327 110.123 50.2327C110.136 50.2327 110.149 50.2484 110.185 50.2702C110.024 50.7115 109.863 51.158 109.698 51.6037C108.821 53.9696 107.942 56.3352 107.062 58.7005C106.941 59.026 106.821 59.3542 106.669 59.6658C106.519 59.9958 106.29 60.2834 106.001 60.5027C105.713 60.7219 105.375 60.866 105.017 60.9218C104.29 61.0568 103.57 61.0002 102.832 60.9218V59.1574C103.134 59.1775 103.431 59.1853 103.725 59.2184C104.812 59.3394 105.112 58.388 104.836 57.6777C104.401 56.5705 103.996 55.4528 103.579 54.3395C103.08 53.0048 102.58 51.6719 102.08 50.3407C102.072 50.3122 102.067 50.2831 102.064 50.2536C102.118 50.2431 102.172 50.2362 102.226 50.2327C102.874 50.2327 103.521 50.2327 104.169 50.2284C104.228 50.2188 104.287 50.2328 104.335 50.2672C104.383 50.3017 104.416 50.3538 104.425 50.412C104.984 52.1181 105.548 53.8225 106.117 55.5251C106.133 55.5642 106.154 55.606 106.203 55.7209Z" fill="black"/>
</g>
</g>
<defs>
<clipPath id="clip0_663_1405">
<rect width="288" height="74" fill="white"/>
</clipPath>
<clipPath id="clip1_663_1405">
<rect width="120" height="48" fill="white" transform="translate(84 13)"/>
</clipPath>
</defs>
</svg>
